<svg xmlns="http://www.w3.org/2000/svg" version="1.1" xmlns:xlink="http://www.w3.org/1999/xlink" xmlns:svgjs="http://svgjs.dev/svgjs" width="2000" height="1999" viewBox="0 0 2000 1999"><g transform="matrix(1,0,0,1,-0.431486880466764,-0.4312711370263287)"><svg viewBox="0 0 343 343" data-background-color="#ffffff" preserveAspectRatio="xMidYMid meet" height="1999" width="2000" xmlns="http://www.w3.org/2000/svg" xmlns:xlink="http://www.w3.org/1999/xlink"><g id="tight-bounds" transform="matrix(1,0,0,1,0.0740000000000407,0.07400000000001228)"><svg viewBox="0 0 342.85155851775386 342.85155851775386" height="342.85155851775386" width="342.85155851775386"><g><svg></svg></g><g><svg viewBox="0 0 342.85155851775386 342.85155851775386" height="342.85155851775386" width="342.85155851775386"><g><path d="M0 171.426c0-94.676 76.75-171.426 171.426-171.426 94.676 0 171.426 76.75 171.426 171.426 0 94.676-76.75 171.426-171.426 171.426-94.676 0-171.426-76.75-171.426-171.426zM171.426 338.56c92.306 0 167.135-74.829 167.134-167.134 0-92.306-74.829-167.135-167.134-167.135-92.306 0-167.135 74.829-167.135 167.135 0 92.306 74.829 167.135 167.135 167.134z" data-fill-palette-color="tertiary" fill="#c43028" stroke="transparent"></path><ellipse rx="164.56874808852186" ry="164.56874808852186" cx="171.42577925887693" cy="171.42577925887693" fill="#c43028" stroke="transparent" stroke-width="0" fill-opacity="1" data-fill-palette-color="tertiary"></ellipse></g><g transform="matrix(1,0,0,1,64.84655864529837,109.13503836126915)"><svg viewBox="0 0 213.1584412271571 124.58148179521554" height="124.58148179521554" width="213.1584412271571"><g><svg viewBox="0 0 213.1584412271571 124.58148179521554" height="124.58148179521554" width="213.1584412271571"><g><svg viewBox="0 0 213.15844122715714 124.58148179521555" height="124.58148179521554" width="213.1584412271571"><g transform="matrix(1,0,0,1,0,76.99635371061619)"><svg viewBox="0 0 213.15844122715714 47.585128084599354" height="47.585128084599354" width="213.15844122715714"><g id="textblocktransform"><svg viewBox="0 0 213.15844122715714 47.585128084599354" height="47.585128084599354" width="213.15844122715714" id="textblock"><g><svg viewBox="0 0 213.15844122715714 47.585128084599354" height="47.585128084599354" width="213.15844122715714"><g transform="matrix(1,0,0,1,0,0)"><svg width="213.15844122715714" viewBox="2.4499999999999997 -32.7 185.89000000000001 41.5" height="47.585128084599354" data-palette-color="#ffffff"><path d="M11.6 0.65L11.6 0.65Q8.2 0.65 6.35-0.1 4.5-0.85 3.8-2.2 3.1-3.55 3.1-5.4L3.1-5.4Q3.1-6.3 3.25-7.43 3.4-8.55 3.6-10L3.6-10Q4.5-15.5 4.5-19.75L4.5-19.75Q4.5-22.55 4.28-24.53 4.05-26.5 2.95-28.3L2.95-28.3Q2.75-28.6 2.6-28.93 2.45-29.25 2.45-29.45L2.45-29.45Q2.45-30.05 3.15-30.7 3.85-31.35 4.85-31.8 5.85-32.25 6.75-32.25L6.75-32.25Q8.45-32.25 8.88-30.9 9.3-29.55 9.3-27.05L9.3-27.05Q9.3-26.1 9.1-24.03 8.9-21.95 8.5-18.75L8.5-18.75Q8.1-15.65 7.9-13.4 7.7-11.15 7.7-9.8L7.7-9.8Q7.7-7.8 8.18-6.78 8.65-5.75 9.75-5.35L9.75-5.35Q10.85-4.95 12.85-4.95L12.85-4.95Q15-4.95 16.95-5.33 18.9-5.7 20.75-6.5L20.75-6.5Q21-6.6 21.2-6.65 21.4-6.7 21.55-6.7L21.55-6.7Q22-6.7 22.4-6.15 22.8-5.6 22.8-4.6L22.8-4.6Q22.8-2.4 20.4-1.15L20.4-1.15Q17.2 0.65 11.6 0.65ZM28.25 0.5L28.25 0.5Q27.15 0.5 26.37-0.08 25.6-0.65 25.6-2.8L25.6-2.8Q25.6-3.9 25.82-5.48 26.05-7.05 26.3-8.75L26.3-8.75Q26.7-11.15 27.1-14.03 27.5-16.9 27.5-19.75L27.5-19.75Q27.5-22.75 27.3-24.35 27.1-25.95 26.85-26.95L26.85-26.95Q26.75-27.5 26.67-27.95 26.6-28.4 26.6-28.95L26.6-28.95Q26.6-30.55 27.62-31.38 28.65-32.2 29.9-32.2L29.9-32.2Q31.15-32.2 32-31.58 32.85-30.95 33.5-30.25L33.5-30.25Q37.8-25.4 41.25-20.08 44.7-14.75 47-9.15L47-9.15Q47.25-8.75 47.45-8.75L47.45-8.75Q47.75-8.75 47.85-9.15L47.85-9.15Q48.75-15 48.75-19.75L48.75-19.75Q48.75-22.6 48.52-24.28 48.3-25.95 47.97-26.88 47.65-27.8 47.35-28.35L47.35-28.35Q47.2-28.7 47.1-28.98 47-29.25 47-29.5L47-29.5Q47-30.1 47.62-30.73 48.25-31.35 49.15-31.75 50.05-32.15 50.9-32.15L50.9-32.15Q52.1-32.15 52.65-31.35 53.2-30.55 53.37-29.38 53.55-28.2 53.55-27L53.55-27Q53.55-25.65 53.3-23.5 53.05-21.35 52.72-18.88 52.4-16.4 52.17-14 51.95-11.6 51.95-9.75L51.95-9.75Q51.95-8.7 52.02-7.7 52.1-6.7 52.2-5.75L52.2-5.75Q52.35-4.5 52.35-3.55L52.35-3.55Q52.35-1.7 51.42-0.63 50.5 0.45 48.9 0.45L48.9 0.45Q47.8 0.45 46.72-0.2 45.65-0.85 45.1-2.3L45.1-2.3Q42.95-7.8 39.82-13.03 36.7-18.25 33.3-22.05L33.3-22.05Q32.75-22.55 32.4-22.55L32.4-22.55Q31.9-22.55 31.75-21.45L31.75-21.45Q31.5-19.55 31.25-17.3 31-15.05 30.85-12.93 30.7-10.8 30.7-9.3L30.7-9.3Q30.7-7.6 31-6.38 31.3-5.15 31.9-4L31.9-4Q32.45-3 32.45-2.2L32.45-2.2Q32.45-1.25 31.35-0.38 30.25 0.5 28.25 0.5ZM59.55 0.5L59.55 0.5Q58.59 0.5 58.24-0.05 57.9-0.6 57.9-1.25L57.9-1.25Q57.9-4.35 58.52-8.35 59.15-12.35 60.05-16.3L60.05-16.3Q60.84-19.65 61.82-22.55 62.8-25.45 63.55-27.3L63.55-27.3Q64.64-29.9 66.07-31.28 67.5-32.65 69.39-32.65L69.39-32.65Q70.8-32.65 71.89-31.73 73-30.8 73.19-28.4L73.19-28.4Q73.5-25.5 73.89-22.55 74.3-19.6 74.8-17.18 75.3-14.75 75.84-13.45L75.84-13.45Q76.3-12.3 77.15-12.3L77.15-12.3Q78.09-12.3 78.8-13.5L78.8-13.5Q79.44-14.6 80.19-16.5 80.94-18.4 81.67-20.53 82.4-22.65 82.94-24.4L82.94-24.4Q83.59-26.3 84.42-28.23 85.25-30.15 86.55-31.43 87.84-32.7 89.8-32.7L89.8-32.7Q91.59-32.7 92.37-31.48 93.15-30.25 93.15-27.6L93.15-27.6Q93.15-25.55 93-23.3L93-23.3Q92.94-22 92.87-20.63 92.8-19.25 92.8-17.8L92.8-17.8Q92.8-15.55 93.02-13.05 93.25-10.55 93.92-8.35 94.59-6.15 95.94-4.65L95.94-4.65Q96.34-4.3 96.67-3.85 97-3.4 97-2.85L97-2.85Q97-1.6 95.67-0.58 94.34 0.45 92.65 0.45L92.65 0.45Q91.09 0.45 90.34-0.55 89.59-1.55 89.15-3.25L89.15-3.25Q88.65-5.35 88.44-7.75 88.25-10.15 88.25-12.4L88.25-12.4Q88.25-16 88.52-19.03 88.8-22.05 88.8-23.5L88.8-23.5Q88.8-24.3 88.65-24.68 88.5-25.05 87.9-25.05L87.9-25.05Q87.19-25.05 86.72-24.43 86.25-23.8 85.94-22.7L85.94-22.7Q85.3-20.6 84.5-18.2 83.69-15.8 82.82-13.5 81.94-11.2 80.94-9.4L80.94-9.4Q79.8-7.3 78.47-6.58 77.15-5.85 75.8-5.85L75.8-5.85Q73.69-5.85 72.62-7.18 71.55-8.5 71.05-10.1L71.05-10.1Q70.39-12.25 69.84-15.73 69.3-19.2 69.05-23.55L69.05-23.55Q68.94-25.4 67.84-25.4L67.84-25.4Q66.64-25.4 65.94-23.6L65.94-23.6Q65.34-21.8 64.8-19.38 64.25-16.95 63.92-14.33 63.59-11.7 63.59-9.15L63.59-9.15Q63.59-7 63.77-5.4 63.95-3.8 63.95-2.4L63.95-2.4Q63.95-1.4 63.17-0.75 62.4-0.1 61.34 0.2 60.3 0.5 59.55 0.5ZM129.34 8.8L129.34 8.8Q126.44 8.8 123.92 7.48 121.39 6.15 119.37 4.17 117.34 2.2 115.79 0.25L115.79 0.25Q114.89 0.45 113.97 0.55 113.04 0.65 112.14 0.65L112.14 0.65Q108.94 0.65 106.44-0.6 103.94-1.85 102.52-4.1 101.09-6.35 100.99-9.3L100.99-9.3Q100.94-13.3 103.74-16.25L103.74-16.25Q106.09-18.75 108.14-18.75L108.14-18.75Q109.19-18.75 109.74-18.03 110.29-17.3 110.94-15.85L110.94-15.85Q112.14-13.3 113.77-10.73 115.39-8.15 117.39-5.6L117.39-5.6Q120.49-6.75 122.49-9.65 124.49-12.55 124.39-16.6L124.39-16.6Q124.34-20 122.94-22.25 121.54-24.5 119.32-25.63 117.09-26.75 114.49-26.75L114.49-26.75Q111.74-26.75 109.67-25.68 107.59-24.6 106.14-23.13 104.69-21.65 103.84-20.4L103.84-20.4Q103.64-20.1 103.29-20 102.94-19.9 102.69-19.9L102.69-19.9Q101.94-19.9 101.67-20.5 101.39-21.1 101.39-22L101.39-22Q101.34-23.7 102.32-25.53 103.29-27.35 105.12-28.9 106.94-30.45 109.44-31.4 111.94-32.35 114.99-32.35L114.99-32.35Q121.14-32.35 124.59-28.5 128.04-24.65 128.14-18L128.14-18Q128.24-12.45 126.07-8.25 123.89-4.05 120.19-1.7L120.19-1.7Q121.49-0.4 123.19 0.73 124.89 1.85 126.79 2.5 128.69 3.15 130.49 3.15L130.49 3.15Q131.84 3.15 132.87 2.85 133.89 2.55 134.09 2.55L134.09 2.55Q134.49 2.55 134.72 3.28 134.94 4 134.94 4.7L134.94 4.7Q134.94 6.85 133.27 7.83 131.59 8.8 129.34 8.8ZM112.54-5L112.54-5Q110.79-7.2 109.74-9.2 108.69-11.2 107.69-13.55L107.69-13.55Q107.34-14.15 106.89-14.15L106.89-14.15Q106.19-14.15 105.54-13.2 104.89-12.25 104.94-10.9L104.94-10.9Q104.99-8.6 107.12-6.95 109.24-5.3 112.54-5ZM138.49 0.65L138.49 0.65Q135.99 0.65 134.62-0.8 133.24-2.25 133.24-5L133.24-5Q133.24-6.95 133.79-9L133.79-9Q134.04-9.85 134.19-10.7 134.34-11.55 134.34-12.4L134.34-12.4Q134.34-14.6 132.99-15.25L132.99-15.25Q131.69-15.95 131.69-16.75L131.69-16.75Q131.69-17.55 132.37-18.35 133.04-19.15 134.04-19.68 135.04-20.2 136.04-20.2L136.04-20.2Q138.89-20.2 138.89-15.55L138.89-15.55Q138.89-14.05 138.66-12.78 138.44-11.5 138.14-10.35L138.14-10.35Q137.94-9.55 137.81-8.75 137.69-7.95 137.69-7.35L137.69-7.35Q137.69-4.85 140.14-4.85L140.14-4.85Q142.44-4.85 144.44-7.3 146.44-9.75 147.74-14.15L147.74-14.15 147.69-15.1Q147.59-17.6 148.56-18.9 149.54-20.2 151.44-20.2L151.44-20.2Q153.09-20.2 153.09-19.15L153.09-19.15Q153.09-18.8 152.97-18.25 152.84-17.7 152.59-16.95L152.59-16.95Q152.09-15.1 151.74-13.03 151.39-10.95 151.39-9.2L151.39-9.2Q151.39-7.25 151.99-5.98 152.59-4.7 154.24-4.25L154.24-4.25Q154.69-4.2 154.97-3.98 155.24-3.75 155.24-3.05L155.24-3.05Q155.24-1.85 154.24-0.7 153.24 0.45 151.34 0.45L151.34 0.45Q147.69 0.45 147.69-4.7L147.69-4.7Q147.69-5.6 147.84-7.4L147.84-7.4 147.74-7.45Q144.59 0.65 138.49 0.65ZM162.29-24.85L162.29-24.85Q160.89-24.9 160.04-25.7 159.19-26.5 159.19-27.95L159.19-27.95Q159.24-29.5 160.24-30.48 161.24-31.45 162.79-31.4L162.79-31.4Q164.24-31.35 165.06-30.55 165.89-29.75 165.84-28.3L165.84-28.3Q165.79-26.8 164.84-25.83 163.89-24.85 162.29-24.85ZM162.34 0.5L162.34 0.5Q160.84 0.5 159.99-0.33 159.14-1.15 159.14-3.15L159.14-3.15Q159.14-4.3 159.36-5.4 159.59-6.5 159.89-7.55L159.89-7.55Q160.24-8.65 160.46-9.8 160.69-10.95 160.69-12.25L160.69-12.25Q160.69-13.15 160.44-13.98 160.19-14.8 159.34-15.2L159.34-15.2Q158.69-15.55 158.21-15.93 157.74-16.3 157.74-16.9L157.74-16.9Q157.74-17.6 158.39-18.4 159.04-19.2 160.11-19.78 161.19-20.35 162.34-20.35L162.34-20.35Q163.59-20.35 164.16-19.7 164.74-19.05 164.94-18.05 165.14-17.05 165.14-16L165.14-16Q165.14-14.4 164.89-12.88 164.64-11.35 164.39-10.05L164.39-10.05Q164.19-9.1 164.09-8.3 163.99-7.5 163.99-6.8L163.99-6.8Q163.99-5.55 164.59-4.93 165.19-4.3 166.29-3.75L166.29-3.75Q166.74-3.5 166.74-3L166.74-3Q166.74-2.6 166.34-1.75 165.94-0.9 164.96-0.2 163.99 0.5 162.34 0.5ZM178.74 0.55L178.74 0.55Q176.99 0.55 175.59 0.45 174.19 0.35 173.14 0.15L173.14 0.15Q172.03-0.05 171.36-0.4 170.69-0.75 170.28-1.2L170.28-1.2Q169.99-1.55 169.78-2.15 169.59-2.75 169.59-3.25L169.59-3.25Q169.59-4.85 170.86-5.95 172.14-7.05 173.84-8.2L173.84-8.2 180.49-12.8Q181.84-13.85 181.84-14.3L181.84-14.3Q181.84-15.4 178.84-15.4L178.84-15.4Q176.84-15.4 175.64-14.93 174.44-14.45 173.99-13.8L173.99-13.8Q173.69-13.45 173.46-13.28 173.24-13.1 172.84-13.1L172.84-13.1Q172.09-13.1 171.31-13.93 170.53-14.75 170.53-16.15L170.53-16.15Q170.53-17.8 171.78-18.7 173.03-19.6 175.06-19.98 177.09-20.35 179.39-20.35L179.39-20.35Q181.89-20.35 183.66-20.08 185.44-19.8 186.53-19.1L186.53-19.1Q187.39-18.6 187.81-17.7 188.24-16.8 188.24-15.8L188.24-15.8Q188.24-14.1 186.51-12.6 184.78-11.1 181.74-9.25L181.74-9.25 176.14-5.85Q175.64-5.55 175.64-5.15L175.64-5.15Q175.64-4.6 176.34-4.55L176.34-4.55Q176.84-4.5 177.59-4.48 178.34-4.45 179.24-4.45L179.24-4.45Q183.28-4.45 185.53-5.5L185.53-5.5Q186.39-5.95 186.74-5.95L186.74-5.95Q187.28-5.95 187.81-5.28 188.34-4.6 188.34-3.55L188.34-3.55Q188.34-1.15 185.69-0.3 183.03 0.55 178.74 0.55Z" opacity="1" transform="matrix(1,0,0,1,0,0)" fill="#ffffff" class="wordmark-text-0" data-fill-palette-color="quaternary" id="text-0"></path></svg></g></svg></g></svg></g></svg></g><g transform="matrix(1,0,0,1,72.41742546520696,0)"><svg viewBox="0 0 68.32359029674322 65.76264701291632" height="65.76264701291632" width="68.32359029674322"><g><svg xmlns="http://www.w3.org/2000/svg" xmlns:xlink="http://www.w3.org/1999/xlink" version="1.1" x="0" y="0" viewBox="2.2 4.079584775086506 95.5 91.9204152249135" enable-background="new 0 0 100 100" xml:space="preserve" height="65.76264701291632" width="68.32359029674322" class="icon-icon-0" data-fill-palette-color="quaternary" id="icon-0"><path d="M52.4 75.9V78.2C52.4 79 51.8 79.6 51 79.6H47.4C46.6 79.6 46 79 46 78.2V75.9C46 75.1 46.6 74.5 47.4 74.5H51C51.8 74.5 52.4 75.1 52.4 75.9M52.9 69.1C53.2 68.5 53.7 67.9 54.6 67.4 56.1 66.6 57.3 65.6 58.2 64.2 59.2 62.9 59.6 61.4 59.6 59.8 59.6 57.2 58.7 55.1 57 53.6S52.9 51.3 49.8 51.3C47 51.3 44.7 52 43 53.3 41.5 54.5 40.6 56.1 40.5 58.3 40.5 58.8 40.9 59.2 41.4 59.3L45.5 59.4C46.2 59.4 46.8 59 47 58.4 47.1 57.9 47.4 57.5 47.8 57.1 48.4 56.6 49.1 56.3 49.9 56.3 51 56.3 51.8 56.6 52.3 57.3 52.9 57.9 53.2 58.8 53.2 59.9 53.2 60.9 53 61.8 52.5 62.6S51.3 64.1 50.5 64.6C48.8 65.8 47.7 66.8 47.1 67.7 46.6 68.4 46.3 69.4 46.2 70.6 46.1 71.2 46.6 71.7 47.2 71.7H51.7C52.2 71.7 52.6 71.3 52.7 70.8 52.5 70.1 52.7 69.6 52.9 69.1M65.8 35.4S65.7 33.2 63.5 32.2 60.2 31 60.2 30.9C60.1 30.9 56.6 29.9 54.9 29H54.8C54.4 28.8 54.2 28.4 54.2 28V25.9S59.1 26 61.4 23.7C61.4 23.7 58 22.7 58.6 16.6S57.8 5.1 52.9 5.6C52.9 5.6 50.8 3 46.5 4.6 45 5.2 41.1 6.6 41.3 15 41.5 23.5 38.3 23.5 38.3 23.5S40 25.9 45.6 25.9V28C45.6 28.4 45.4 28.8 45 29 45 29 44.9 29 44.9 29.1 43.2 30 39.7 30.9 39.6 31 39.5 31 38.4 31.2 36.3 32.3 34.1 33.3 34 35.5 34 35.5V40.5H65.7V35.4zM95.5 87.8C93.3 86.8 92.2 86.6 92.2 86.5 92.1 86.5 88.6 85.5 86.9 84.6L86.8 84.5C86.4 84.3 86.2 83.9 86.2 83.5V81.4S91.1 81.5 93.4 79.2C93.4 79.2 90 78.2 90.6 72.1S89.8 60.6 84.9 61.1C84.9 61.1 82.8 58.5 78.5 60.1 77 60.7 73.1 62.1 73.3 70.5 73.5 79 70.3 79 70.3 79S72 81.4 77.6 81.4V83.5C77.6 83.9 77.4 84.3 77 84.5 77 84.5 76.9 84.5 76.9 84.6 75.2 85.5 71.7 86.4 71.6 86.5 71.5 86.5 70.4 86.7 68.3 87.8 66.1 88.8 66 91 66 91V96H97.7V91S97.6 88.8 95.5 87.8M34 91S33.9 88.8 31.7 87.8 28.4 86.6 28.4 86.5C28.3 86.5 24.8 85.5 23.1 84.6L23 84.5C22.6 84.3 22.4 83.9 22.4 83.5V81.4S27.3 81.5 29.6 79.2C29.6 79.2 26.2 78.2 26.8 72.1S26 60.6 21.1 61.1C21.1 61.1 19 58.5 14.7 60.1 13.2 60.7 9.3 62.1 9.5 70.5 9.7 79 6.5 79 6.5 79S8.2 81.4 13.8 81.4V83.5C13.8 83.9 13.6 84.3 13.2 84.5 13.2 84.5 13.1 84.5 13.1 84.6 11.4 85.5 7.9 86.4 7.8 86.5 7.7 86.5 6.6 86.7 4.5 87.8 2.3 88.8 2.2 91 2.2 91V96H34z" fill="#ffffff" data-fill-palette-color="quaternary"></path></svg></g></svg></g><g></g></svg></g></svg></g></svg></g></svg></g><defs></defs></svg><rect width="342.85155851775386" height="342.85155851775386" fill="none" stroke="none" visibility="hidden"></rect></g></svg></g></svg>